<svg xmlns="http://www.w3.org/2000/svg" viewBox="0 0 48 48"><path d="M32 2.17V7h4.14L32 2.17zM9 25h4v4H9zM9 36h4v4H9z"/><path d="M35.28 36.41c-.17.28.11.05-5 3.41a1 1 0 0 1-1.05 0c-.72-.41-.52-.56-.17-6.51 0-.36-.53.71 7.92-13.93V9H31a1 1 0 0 1-1-1V1H3v46h34V33.43c-1.85 3.2-1.56 2.69-1.72 2.98zM19 13h13a1 1 0 0 1 0 2H19a1 1 0 0 1 0-2zm0 4h13a1 1 0 0 1 0 2H19a1 1 0 0 1 0-2zm-4 24a1 1 0 0 1-1 1H8a1 1 0 0 1-1-1v-6a1 1 0 0 1 1-1h6a1 1 0 0 1 1 1zm0-11a1 1 0 0 1-1 1H8a1 1 0 0 1-1-1v-6a1 1 0 0 1 1-1h6a1 1 0 0 1 1 1zm-.29-15.29c-5.45 5.44-4.17 5.24-7.42 2a1 1 0 0 1 1.42-1.42l1.29 1.3 3.29-3.3a1 1 0 0 1 1.42 1.42zM24 41h-5a1 1 0 0 1 0-2h5a1 1 0 0 1 0 2zm0-4h-5a1 1 0 0 1 0-2h5a1 1 0 0 1 0 2zm3-7h-8a1 1 0 0 1 0-2h8a1 1 0 0 1 0 2zm0-4h-8a1 1 0 0 1 0-2h8a1 1 0 0 1 0 2zm15.2-11.58L41 16.59l2.59 1.5 1.25-2.17a1.5 1.5 0 0 0-2.64-1.5z"/><path d="M31.84 32.36a5.33 5.33 0 0 1 2.6 1.49l8.1-14L40 18.33c-2.71 4.59-1.33 2.21-8.16 14.03zM31 34.24c-.09 1.6-.05 1-.16 2.81l2.35-1.55A3.29 3.29 0 0 0 31 34.24z"/></svg>